# Blender 3.2.0
# www.blender.org
mtllib BowlingPin.mtl
o Cylinder
v 0.000000 -0.431993 -0.116684
v 0.000000 -0.190630 -0.164362
v 0.068585 -0.431993 -0.094399
v 0.096610 -0.190630 -0.132972
v 0.110973 -0.431993 -0.036057
v 0.156318 -0.190630 -0.050791
v 0.110973 -0.431993 0.036057
v 0.156318 -0.190630 0.050791
v 0.068585 -0.431993 0.094399
v 0.096610 -0.190630 0.132972
v 0.000000 -0.431993 0.116684
v 0.000000 -0.190630 0.164362
v -0.068585 -0.431993 0.094399
v -0.096610 -0.190630 0.132972
v -0.110973 -0.431993 0.036057
v -0.156318 -0.190630 0.050791
v -0.110973 -0.431993 -0.036057
v -0.156318 -0.190630 -0.050791
v -0.068585 -0.431993 -0.094399
v -0.096610 -0.190630 -0.132972
v 0.000000 0.053982 -0.149962
v 0.088146 0.053982 -0.121322
v 0.142623 0.053982 -0.046341
v 0.142623 0.053982 0.046341
v 0.088146 0.053982 0.121322
v 0.000000 0.053982 0.149962
v -0.088146 0.053982 0.121322
v -0.142622 0.053982 0.046341
v -0.142622 0.053982 -0.046341
v -0.088145 0.053982 -0.121322
v 0.000000 0.200427 -0.094181
v 0.055358 0.200427 -0.076194
v 0.089571 0.200427 -0.029103
v 0.089571 0.200427 0.029103
v 0.055358 0.200427 0.076194
v 0.000000 0.200427 0.094181
v -0.055358 0.200427 0.076194
v -0.089571 0.200427 0.029103
v -0.089571 0.200427 -0.029103
v -0.055358 0.200427 -0.076194
v 0.000000 0.343979 -0.090148
v 0.052988 0.343979 -0.072931
v 0.085736 0.343979 -0.027857
v 0.085736 0.343979 0.027857
v 0.052988 0.343979 0.072931
v 0.000000 0.343979 0.090148
v -0.052987 0.343979 0.072931
v -0.085736 0.343979 0.027857
v -0.085736 0.343979 -0.027857
v -0.052987 0.343979 -0.072931
v 0.000000 0.442454 -0.118339
v 0.069558 0.442454 -0.095738
v 0.112547 0.442454 -0.036569
v 0.112547 0.442454 0.036569
v 0.069558 0.442454 0.095739
v 0.000000 0.442454 0.118339
v -0.069558 0.442454 0.095739
v -0.112547 0.442454 0.036569
v -0.112547 0.442454 -0.036569
v -0.069558 0.442454 -0.095738
v 0.000000 0.520954 -0.118339
v 0.069558 0.520954 -0.095738
v 0.112547 0.520954 -0.036569
v 0.112547 0.520954 0.036569
v 0.069558 0.520954 0.095739
v 0.000000 0.520954 0.118339
v -0.069558 0.520954 0.095739
v -0.112547 0.520954 0.036569
v -0.112547 0.520954 -0.036569
v -0.069558 0.520954 -0.095738
v 0.000000 0.589389 -0.074259
v 0.043649 0.589389 -0.060077
v 0.070625 0.589389 -0.022947
v 0.070625 0.589389 0.022947
v 0.043649 0.589389 0.060077
v 0.000000 0.589389 0.074259
v -0.043649 0.589389 0.060077
v -0.070625 0.589389 0.022947
v -0.070625 0.589389 -0.022947
v -0.043649 0.589389 -0.060077
v -0.167006 -0.068324 -0.054263
v -0.103215 -0.068324 -0.142063
v -0.167006 -0.068324 0.054263
v -0.103215 -0.068324 0.142064
v 0.000000 -0.068324 0.175600
v 0.103215 -0.068324 0.142064
v 0.167006 -0.068324 0.054263
v 0.000000 -0.068324 -0.175600
v 0.103215 -0.068324 -0.142063
v 0.167006 -0.068324 -0.054263
v 0.000000 0.605879 0.000000
vn -0.0000 -0.7147 -0.6994
vn -0.0000 -0.1414 -0.9899
vn 0.5819 -0.1414 -0.8009
vn 0.4111 -0.7147 -0.5658
vn 0.9415 -0.1414 -0.3059
vn 0.6652 -0.7147 -0.2161
vn 0.9415 -0.1414 0.3059
vn 0.6652 -0.7147 0.2161
vn 0.5819 -0.1414 0.8009
vn 0.4111 -0.7147 0.5658
vn -0.0000 -0.1414 0.9899
vn -0.0000 -0.7147 0.6994
vn -0.5819 -0.1414 0.8009
vn -0.4111 -0.7147 0.5658
vn -0.9415 -0.1414 0.3059
vn -0.6652 -0.7147 0.2161
vn -0.9415 -0.1414 -0.3059
vn -0.6652 -0.7147 -0.2161
vn -0.5869 0.0559 -0.8078
vn -0.9496 0.0559 -0.3085
vn -0.9137 0.2773 -0.2969
vn -0.5647 0.2773 -0.7773
vn -0.5819 -0.1414 -0.8009
vn -0.4111 -0.7147 -0.5658
vn 0.5647 0.2773 0.7773
vn 0.9137 0.2773 0.2969
vn 0.9316 0.2014 0.3027
vn 0.5757 0.2014 0.7924
vn -0.9496 0.0559 0.3085
vn -0.9137 0.2773 0.2969
vn -0.5869 0.0559 0.8078
vn -0.5647 0.2773 0.7773
vn -0.0000 0.0559 0.9984
vn -0.0000 0.2773 0.9608
vn 0.5869 0.0559 0.8078
vn 0.9496 0.0559 0.3085
vn 0.5869 0.0559 -0.8078
vn -0.0000 0.0559 -0.9984
vn -0.0000 0.2773 -0.9608
vn 0.5647 0.2773 -0.7773
vn 0.9496 0.0559 -0.3085
vn 0.9137 0.2773 -0.2969
vn 0.5757 0.2014 -0.7924
vn -0.0000 0.2014 -0.9795
vn -0.0000 -0.1289 -0.9917
vn 0.5829 -0.1289 -0.8023
vn -0.9316 0.2014 0.3027
vn -0.9316 0.2014 -0.3027
vn -0.0000 0.2014 0.9795
vn 0.9316 0.2014 -0.3027
vn -0.5757 0.2014 -0.7924
vn -0.5757 0.2014 0.7924
vn -0.9431 -0.1289 -0.3064
vn -0.9431 -0.1289 0.3064
vn -0.9423 -0.1353 0.3062
vn -0.9423 -0.1353 -0.3062
vn 0.5829 -0.1289 0.8023
vn -0.0000 -0.1289 0.9917
vn 0.9431 -0.1289 -0.3064
vn -0.5829 -0.1289 -0.8023
vn -0.5829 -0.1289 0.8023
vn 0.9431 -0.1289 0.3064
vn -0.0000 -0.1353 0.9908
vn 0.5824 -0.1353 0.8016
vn 0.5662 0.2682 0.7794
vn -0.0000 0.2682 0.9634
vn 0.5824 -0.1353 -0.8016
vn 0.9423 -0.1353 -0.3062
vn -0.5824 -0.1353 -0.8016
vn -0.5824 -0.1353 0.8016
vn 0.9423 -0.1353 0.3062
vn -0.0000 -0.1353 -0.9908
vn 0.9162 0.2682 -0.2977
vn 0.5662 0.2682 -0.7794
vn 0.3635 0.7859 -0.5003
vn 0.5881 0.7859 -0.1911
vn -0.9162 0.2682 -0.2977
vn -0.5662 0.2682 -0.7794
vn -0.5662 0.2682 0.7794
vn 0.9162 0.2682 0.2977
vn -0.0000 0.2682 -0.9634
vn -0.9162 0.2682 0.2977
vn 0.3635 0.7859 0.5003
vn 0.5881 0.7859 0.1911
vn -0.0000 1.0000 -0.0000
vn -0.5881 0.7859 -0.1911
vn -0.3635 0.7859 -0.5003
vn -0.0000 0.7859 0.6184
vn -0.3635 0.7859 0.5003
vn -0.0000 0.7859 -0.6184
vn -0.5881 0.7859 0.1911
vt 0.647189 0.029893
vt 0.768944 0.029893
vt 0.869891 0.966989
vt 0.738383 0.253271
vt 0.658863 0.248683
vt 0.590052 0.029893
vt 0.856171 0.971666
vt 0.578378 0.248683
vt 0.543827 0.032673
vt 0.468297 0.032673
vt 0.842494 0.966888
vt 0.513265 0.252598
vt 0.498858 0.252598
vt 0.422072 0.029893
vt 0.833959 0.955350
vt 0.433745 0.248683
vt 0.364934 0.029893
vt 0.834001 0.942236
vt 0.353261 0.248683
vt 0.318709 0.032673
vt 0.243179 0.032673
vt 0.842399 0.932217
vt 0.288148 0.252598
vt 0.273741 0.252598
vt 0.196954 0.029893
vt 0.855954 0.928947
vt 0.208628 0.248683
vt 0.139817 0.029893
vt 0.918532 0.029893
vt 0.869675 0.932577
vt 0.128143 0.248683
vt 0.949093 0.253271
vt 0.872307 0.031948
vt 0.878356 0.942233
vt 0.883980 0.256165
vt 0.815169 0.031948
vt 0.878425 0.955347
vt 0.803496 0.256165
vt 0.654745 0.498601
vt 0.581312 0.498601
vt 0.521928 0.501170
vt 0.489060 0.501170
vt 0.429627 0.498601
vt 0.356194 0.498601
vt 0.296810 0.501170
vt 0.263943 0.501170
vt 0.204510 0.498601
vt 0.131077 0.498601
vt 0.071693 0.501170
vt 0.879807 0.507074
vt 0.806374 0.507074
vt 0.714178 0.501170
vt 0.640129 0.675919
vt 0.594011 0.675919
vt 0.556701 0.678162
vt 0.452322 0.678162
vt 0.415012 0.675919
vt 0.368894 0.675919
vt 0.331583 0.678162
vt 0.227205 0.678162
vt 0.189894 0.675919
vt 0.143776 0.675919
vt 0.106466 0.678162
vt 0.865247 0.676203
vt 0.819129 0.676203
vt 0.677440 0.678162
vt 0.784404 0.806477
vt 0.639142 0.808065
vt 0.594999 0.808065
vt 0.559286 0.810212
vt 0.449737 0.810212
vt 0.414024 0.808065
vt 0.369881 0.808065
vt 0.334168 0.810212
vt 0.224619 0.810212
vt 0.188907 0.808065
vt 0.899972 0.806477
vt 0.144763 0.808065
vt 0.109051 0.810212
vt 0.864259 0.808064
vt 0.674855 0.810212
vt 0.820116 0.808064
vt 0.766855 0.876481
vt 0.646528 0.876967
vt 0.588580 0.876967
vt 0.541719 0.878959
vt 0.468311 0.878959
vt 0.421410 0.876967
vt 0.363462 0.876967
vt 0.316601 0.878959
vt 0.243194 0.878959
vt 0.196292 0.876967
vt 0.138344 0.876967
vt 0.918564 0.876481
vt 0.871674 0.878948
vt 0.813726 0.878948
vt 0.767524 0.921252
vt 0.647205 0.921337
vt 0.589257 0.921337
vt 0.542389 0.923622
vt 0.468981 0.923622
vt 0.422087 0.921337
vt 0.364139 0.921337
vt 0.243863 0.923622
vt 0.317271 0.923622
vt 0.196969 0.921337
vt 0.919234 0.921252
vt 0.139021 0.921337
vt 0.872350 0.923457
vt 0.092153 0.923622
vt 0.814402 0.923457
vt 0.694099 0.923622
vt 0.636789 0.971512
vt 0.231325 0.956202
vt 0.600426 0.971512
vt 0.231190 0.937189
vt 0.571007 0.973296
vt 0.441089 0.973296
vt 0.218302 0.923398
vt 0.411671 0.971512
vt 0.197752 0.917626
vt 0.375308 0.971512
vt 0.177160 0.922532
vt 0.215972 0.973296
vt 0.345890 0.973296
vt 0.164459 0.936328
vt 0.186554 0.971512
vt 0.164723 0.955673
vt 0.150191 0.971512
vt 0.177587 0.973594
vt 0.861904 0.970174
vt 0.120772 0.973296
vt 0.198153 0.981064
vt 0.825541 0.970174
vt 0.666207 0.973296
vt 0.218765 0.973767
vt 0.055827 0.364539
vt 0.886732 0.369187
vt 0.731179 0.364539
vt 0.800745 0.369187
vt 0.125392 0.360356
vt 0.956297 0.366095
vt 0.211379 0.360356
vt 0.280944 0.364539
vt 0.350509 0.360356
vt 0.436496 0.360356
vt 0.731179 0.366095
vt 0.661614 0.360356
vt 0.575627 0.360356
vt 0.506062 0.364539
vt 0.197895 0.945896
s 1
usemtl Material.001
f 1/1/1 2/5/2 4/8/3 3/6/4
f 3/6/4 4/8/3 6/12/5 5/9/6
f 5/10/6 6/13/5 8/16/7 7/14/8
f 7/14/8 8/16/7 10/19/9 9/17/10
f 9/17/10 10/19/9 12/23/11 11/20/12
f 11/21/12 12/24/11 14/27/13 13/25/14
f 13/25/14 14/27/13 16/31/15 15/28/16
f 15/29/16 16/32/15 18/35/17 17/33/18
f 82/140/19 81/138/20 29/50/21 30/51/22
f 17/33/18 18/35/17 20/38/23 19/36/24
f 19/36/24 20/38/23 2/4/2 1/2/1
f 1/3/1 3/7/4 5/11/6 7/15/8 9/18/10 11/22/12 13/26/14 15/30/16 17/34/18 19/37/24
f 25/44/25 24/43/26 34/57/27 35/58/28
f 81/137/20 83/141/29 28/48/30 29/49/21
f 83/141/29 84/143/31 27/47/32 28/48/30
f 84/143/31 85/144/33 26/46/34 27/47/32
f 85/144/33 86/145/35 25/44/25 26/45/34
f 86/145/35 87/146/36 24/43/26 25/44/25
f 89/149/37 88/148/38 21/39/39 22/40/40
f 87/146/36 90/150/41 23/42/42 24/43/26
f 90/150/41 89/149/37 22/40/40 23/41/42
f 88/148/38 82/139/19 30/52/22 21/39/39
f 32/54/43 31/53/44 41/68/45 42/69/46
f 22/40/40 21/39/39 31/53/44 32/54/43
f 29/49/21 28/48/30 38/62/47 39/63/48
f 26/45/34 25/44/25 35/58/28 36/59/49
f 23/41/42 22/40/40 32/54/43 33/55/50
f 30/51/22 29/50/21 39/64/48 40/65/51
f 27/47/32 26/46/34 36/60/49 37/61/52
f 24/43/26 23/42/42 33/56/50 34/57/27
f 21/39/39 30/52/22 40/66/51 31/53/44
f 28/48/30 27/47/32 37/61/52 38/62/47
f 49/80/53 48/77/54 58/94/55 59/95/56
f 39/63/48 38/62/47 48/78/54 49/79/53
f 36/59/49 35/58/28 45/73/57 46/74/58
f 33/55/50 32/54/43 42/69/46 43/70/59
f 40/65/51 39/64/48 49/80/53 50/82/60
f 37/61/52 36/60/49 46/75/58 47/76/61
f 34/57/27 33/56/50 43/71/59 44/72/62
f 31/53/44 40/66/51 50/81/60 41/68/45
f 38/62/47 37/61/52 47/76/61 48/78/54
f 35/58/28 34/57/27 44/72/62 45/73/57
f 56/90/63 55/89/64 65/103/65 66/105/66
f 46/74/58 45/73/57 55/89/64 56/90/63
f 43/70/59 42/69/46 52/85/67 53/86/68
f 50/82/60 49/80/53 59/95/56 60/96/69
f 47/76/61 46/75/58 56/91/63 57/92/70
f 44/72/62 43/71/59 53/87/68 54/88/71
f 41/67/45 50/82/60 60/96/69 51/83/72
f 48/78/54 47/76/61 57/92/70 58/93/55
f 45/73/57 44/72/62 54/88/71 55/89/64
f 42/69/46 41/68/45 51/84/72 52/85/67
f 63/100/73 62/99/74 72/115/75 73/117/76
f 53/86/68 52/85/67 62/99/74 63/100/73
f 60/96/69 59/95/56 69/109/77 70/111/78
f 57/92/70 56/91/63 66/104/66 67/106/79
f 54/88/71 53/87/68 63/101/73 64/102/80
f 51/83/72 60/96/69 70/111/78 61/97/81
f 58/93/55 57/92/70 67/106/79 68/108/82
f 55/89/64 54/88/71 64/102/80 65/103/65
f 52/85/67 51/84/72 61/98/81 62/99/74
f 59/95/56 58/94/55 68/107/82 69/109/77
f 75/123/83 74/121/84 91/151/85
f 70/111/78 69/109/77 79/131/86 80/134/87
f 67/106/79 66/104/66 76/124/88 77/127/89
f 64/102/80 63/101/73 73/118/76 74/120/84
f 61/98/81 70/112/78 80/135/87 71/113/90
f 68/108/82 67/106/79 77/127/89 78/129/91
f 65/103/65 64/102/80 74/120/84 75/122/83
f 62/99/74 61/98/81 71/113/90 72/115/75
f 69/110/77 68/108/82 78/129/91 79/132/86
f 66/105/66 65/103/65 75/122/83 76/125/88
f 2/4/2 20/38/23 82/140/19 88/147/38
f 6/12/5 4/8/3 89/149/37 90/150/41
f 8/16/7 6/13/5 90/150/41 87/146/36
f 4/8/3 2/5/2 88/148/38 89/149/37
f 10/19/9 8/16/7 87/146/36 86/145/35
f 12/23/11 10/19/9 86/145/35 85/144/33
f 14/27/13 12/24/11 85/144/33 84/143/31
f 16/31/15 14/27/13 84/143/31 83/141/29
f 18/35/17 16/32/15 83/142/29 81/138/20
f 20/38/23 18/35/17 81/138/20 82/140/19
f 72/116/75 71/114/90 91/151/85
f 79/133/86 78/130/91 91/151/85
f 76/126/88 75/123/83 91/151/85
f 73/119/76 72/116/75 91/151/85
f 80/136/87 79/133/86 91/151/85
f 77/128/89 76/126/88 91/151/85
f 74/121/84 73/119/76 91/151/85
f 71/114/90 80/136/87 91/151/85
f 78/130/91 77/128/89 91/151/85
